 http://www.imdb.com/title/tt0088128/

Source:Thanks!

Subs: Danish, Dutch, English, Swedish.

Sample and Screens included.

General
Complete name                            : Sixteen Candles-720p MP4 AAC x264 BRRip 1984-CC.mp4
Format                                   : MPEG-4
Format profile                           : Base Media
Codec ID                                 : isom
File size                                : 2.58 GiB
Duration                                 : 1h 32mn
Overall bit rate mode                    : Variable
Overall bit rate                         : 3 991 Kbps
Encoded date                             : UTC 2012-10-17 15:54:41

Video
ID                                       : 1
Format                                   : AVC
Format/Info                              : Advanced Video Codec
Format profile                           : High@L4.1
Format settings, CABAC                   : Yes
Format settings, ReFrames                : 5 frames
Codec ID                                 : avc1
Codec ID/Info                            : Advanced Video Coding
Duration                                 : 1h 32mn
Bit rate                                 : 3 638 Kbps
Maximum bit rate                         : 19.3 Mbps
Width                                    : 1 280 pixels
Height                                   : 688 pixels
Display aspect ratio                     : 1.85:1
Frame rate mode                          : Variable
Frame rate                               : 23.976 fps
Minimum frame rate                       : 19.048 fps
Maximum frame rate                       : 24.390 fps
Color space                              : YUV
Chroma subsampling                       : 4:2:0
Bit depth                                : 8 bits
Scan type                                : Progressive
Bits/(Pixel*Frame)                       : 0.172
Stream size                              : 2.33 GiB (90%)
Writing library                          : x264 core 112

Audio
ID                                       : 2
Format                                   : AAC
Format/Info                              : Advanced Audio Codec
Format profile                           : LC
Codec ID                                 : 40
Duration                                 : 1h 32mn
Bit rate mode                            : Variable
Bit rate                                 : 384 Kbps
Maximum bit rate                         : 719 Kbps
Channel(s)                               : 6 channels
Channel positions                        : Front: L C R, Side: L R, LFE
Sampling rate                            : 48.0 KHz
Compression mode                         : Lossy
Delay relative to video                  : 83ms
Stream size                              : 254 MiB (10%)

Enjoy..

Requested by

Coming up: Sunset Blvd, The Horse Whisperer, Silence of the Lambs and more..